<svg id="Capa_1" enable-background="new 0 0 512 512" height="512" viewBox="0 0 512 512" width="512" xmlns="http://www.w3.org/2000/svg"><g><path d="m405.961 62.116c-41.41-41.411-95.686-62.116-149.961-62.116l-20.016 211.928 20.016 300.072 149.961-149.961c82.822-82.822 82.822-217.101 0-299.923z" fill="#ff415b"/><path d="m106.039 62.116c-82.822 82.822-82.822 217.101 0 299.923l149.961 149.961v-512c-54.275 0-108.55 20.705-149.961 62.116z" fill="#ff7c48"/><path d="m256 49.569-20.016 162.508 20.016 162.508c89.607 0 162.508-72.901 162.508-162.508s-72.901-162.508-162.508-162.508z" fill="#e50058"/><path d="m93.492 212.077c0 89.607 72.901 162.508 162.508 162.508v-325.016c-89.607 0-162.508 72.901-162.508 162.508z" fill="#ff415b"/><path d="m256 79.569-20.016 132.508 20.016 132.508c73.065 0 132.508-59.443 132.508-132.508s-59.443-132.508-132.508-132.508z" fill="#ebebf0"/><path d="m123.492 212.077c0 73.065 59.443 132.508 132.508 132.508v-265.016c-73.065 0-132.508 59.443-132.508 132.508z" fill="#fff5f5"/><path d="m244.96 221.444 11.04 81.51s59.004-40.687 59.004-90.877c0-11.009-2.84-21.56-7.272-31.325z" fill="#009986"/><path d="m204.268 180.752c-4.432 9.765-7.272 20.316-7.272 31.325 0 50.19 59.004 90.877 59.004 90.877v-81.509z" fill="#00cc76"/><path d="m307.732 180.752c-15.774-34.755-51.732-59.552-51.732-59.552l-11.04 53.373 11.04 57.91z" fill="#00cc76"/><path d="m256 121.2s-35.958 24.796-51.732 59.551l51.732 51.733z" fill="#a5e887"/></g></svg>